
<svg version="1.1" id="Layer_1" xmlns="http://www.w3.org/2000/svg" xmlns:xlink="http://www.w3.org/1999/xlink" x="0px" y="0px" enable-background="new 0 0 1024 700" xml:space="preserve" viewBox="278.66 206.1 468.6 614.96"> <path fill="#2C9382" opacity="1.000000" stroke="none" d=" M484.405273,576.295776 &#9;C458.955933,478.313538 434.374146,380.524872 410.586884,282.293701 &#9;C413.504242,282.148438 413.584839,283.844116 414.102570,284.888794 &#9;C434.219849,325.481720 453.580231,366.434235 472.307434,407.686371 &#9;C481.393585,427.701324 490.526947,447.695343 499.481659,467.768982 &#9;C500.877106,470.897156 502.829590,471.758942 506.043823,471.751556 &#9;C516.187195,471.728333 516.082581,471.872467 519.553833,481.667389 &#9;C536.793091,530.312439 554.368652,578.831909 573.852966,626.637573 &#9;C577.250610,634.973999 579.464294,643.685547 581.373657,652.473450 &#9;C581.717834,654.057251 582.279907,655.593750 582.837402,657.476501 &#9;C583.899170,657.073547 584.698792,656.898804 585.363403,656.499329 &#9;C617.345093,637.281128 652.777771,645.286865 675.767151,673.296021 &#9;C695.612122,697.474182 705.788025,725.502808 705.071167,756.791199 &#9;C704.506042,781.456543 695.175110,802.401184 672.029358,813.838318 &#9;C647.131958,826.140930 622.921143,822.252869 601.064392,805.875916 &#9;C576.938721,787.799011 564.253723,762.556030 558.706238,733.449524 &#9;C555.523926,716.752563 555.947693,699.657654 553.654724,682.848755 &#9;C551.857727,669.675476 550.041138,656.510620 546.432678,643.670105 &#9;C544.031250,635.124817 539.459839,627.965088 533.289001,621.607239 &#9;C522.911560,610.915161 511.082886,602.006226 499.367950,592.909668 &#9;C493.552429,588.393982 486.547119,584.749756 484.405273,576.295776 M599.993225,755.545288 &#9;C607.722351,769.356018 617.185486,781.419006 632.811707,786.886841 &#9;C649.585144,792.756165 666.004456,784.204773 670.974854,767.191833 &#9;C674.199890,756.152954 673.398071,745.070496 670.635925,734.156067 &#9;C665.894165,715.419800 658.290100,698.166077 642.533386,685.853577 &#9;C632.179810,677.763184 620.525146,675.354736 608.301514,680.822083 &#9;C595.832520,686.399292 590.285645,697.037109 589.217529,710.264282 &#9;C587.927185,726.243530 592.619019,740.845215 599.993225,755.545288 M525.189026,545.445312 &#9;C521.979004,537.822998 515.798584,534.437012 509.159424,536.663513 &#9;C503.437927,538.582275 499.843323,544.966431 501.116455,550.948120 &#9;C502.581757,557.832581 507.917969,561.573792 515.002686,560.683655 &#9;C521.619019,559.852356 525.843445,553.973999 525.189026,545.445312 z"/> <path fill="#2C9382" opacity="1.000000" stroke="none" d=" M481.625336,593.364624 &#9;C487.905243,599.412415 494.933777,603.937744 501.528931,609.011230 &#9;C504.107330,610.994751 504.806641,612.689941 501.696136,614.698181 &#9;C483.832611,626.231140 478.119354,644.086182 475.188324,663.873901 &#9;C472.091125,684.783752 470.822266,705.856262 468.317596,726.808716 &#9;C467.943909,729.934814 467.596008,733.137817 466.620117,736.102478 &#9;C464.653137,742.078369 465.254761,747.580566 468.792572,752.701660 &#9;C471.031921,755.943115 471.178070,759.070984 469.183899,762.447510 &#9;C468.342987,763.871338 467.624878,765.421753 467.162567,767.005554 &#9;C465.376129,773.125488 461.650818,776.446472 455.010040,776.547729 &#9;C451.399200,776.602844 449.265259,779.236633 447.289246,782.147278 &#9;C435.337738,799.751526 420.121735,813.085205 399.009857,818.655212 &#9;C361.894318,828.447571 325.985504,804.264587 321.702911,766.115540 &#9;C317.398621,727.773071 329.971069,694.961853 356.109131,667.230042 &#9;C368.451691,654.134949 384.095215,646.847717 402.173584,646.038635 &#9;C414.854065,645.471252 426.932495,648.571228 438.070190,654.879517 &#9;C439.508606,655.694214 440.934479,656.531006 443.406982,657.958374 &#9;C448.340973,629.259399 461.923065,604.291687 472.929657,577.968750 &#9;C475.447754,583.432983 477.049652,589.049744 481.625336,593.364624 M412.463470,773.958618 &#9;C428.383575,756.125244 437.455353,735.531799 436.609558,711.355652 &#9;C436.152771,698.298889 431.024902,687.167969 418.679321,681.193237 &#9;C406.404022,675.252441 394.197205,677.154907 384.071381,685.783630 &#9;C360.762177,705.646667 350.581543,731.517944 353.789520,761.774902 &#9;C355.704071,779.832581 369.521301,790.452515 385.627716,788.569946 &#9;C396.178345,787.336731 404.615967,781.840698 412.463470,773.958618 z"/> <path fill="#2C9382" opacity="1.000000" stroke="none" d=" M570.253174,464.095459 &#9;C564.279358,487.801819 558.371643,511.098969 552.201782,535.429749 &#9;C548.580444,530.551270 547.560486,525.962036 545.978943,521.696228 &#9;C537.186890,497.981018 528.609131,474.186462 519.852234,450.458069 &#9;C519.025146,448.216888 519.282715,446.345764 520.018738,444.227173 &#9;C542.129883,380.578156 564.185242,316.909760 586.295837,253.260544 &#9;C591.264893,238.956375 596.404846,224.711548 601.469482,210.440613 &#9;C601.963562,209.048538 602.275574,207.542999 603.886414,206.536880 &#9;C606.704163,207.351654 607.582581,210.085114 608.792236,212.294739 &#9;C614.417847,222.570770 616.588867,233.779160 617.323120,245.340866 &#9;C618.690857,266.876465 614.632690,287.717987 609.399170,308.434875 &#9;C596.328613,360.174255 583.340454,411.934418 570.253174,464.095459 z"/> <path fill="#2C9382" opacity="1.000000" stroke="none" d=" M709.300415,527.293335 &#9;C708.745422,543.237305 709.659180,558.742371 708.323792,574.203857 &#9;C707.648254,582.024841 706.440796,589.709290 703.311890,596.991638 &#9;C697.415649,610.714539 685.328430,614.872986 672.089417,617.039917 &#9;C664.194275,618.332153 656.194580,618.471985 648.188660,618.359314 &#9;C645.038574,618.314941 643.642578,617.218628 643.700012,613.974243 &#9;C643.814880,607.479736 643.822815,600.979370 643.673889,594.486023 &#9;C643.605835,591.521851 644.751526,590.175415 647.688416,590.135742 &#9;C650.351990,590.099792 653.014404,589.933411 655.676025,589.798462 &#9;C670.600403,589.042236 675.446716,584.087402 675.635864,569.009399 &#9;C675.790527,556.684021 675.691162,544.355774 675.742554,532.028931 &#9;C675.769653,525.519043 676.529968,519.055298 678.010559,512.743591 &#9;C680.467224,502.271545 685.183167,493.045593 693.928711,486.793671 &#9;C694.223633,485.397278 693.560913,484.868774 692.922729,484.342041 &#9;C682.166992,475.464844 678.177856,463.401550 676.659485,450.111542 &#9;C675.027344,435.825012 676.135315,421.490204 675.724854,407.183594 &#9;C675.667542,405.185822 675.706787,403.185455 675.663574,401.187134 &#9;C675.393860,388.714874 670.299316,383.299561 657.868652,382.421875 &#9;C654.716370,382.199280 651.538696,382.192139 648.377747,382.275055 &#9;C645.273865,382.356445 643.760132,381.177612 643.814087,377.909332 &#9;C643.923889,371.247864 643.893433,364.583282 643.850769,357.920441 &#9;C643.834229,355.342834 644.691345,353.816193 647.547668,353.769135 &#9;C658.218140,353.593506 668.813293,354.071411 679.289001,356.394714 &#9;C696.652161,360.245392 704.709778,372.024078 707.363220,388.670532 &#9;C709.870422,404.399841 708.714417,420.237396 709.055237,436.032837 &#9;C709.198242,442.660492 708.778137,449.318176 710.970764,455.808960 &#9;C714.352600,465.820312 720.535278,470.872650 731.036255,471.683960 &#9;C735.184753,472.004456 739.328735,472.426361 743.483276,472.609344 &#9;C745.863708,472.714203 747.280640,473.448639 747.264648,476.069519 &#9;C747.225952,482.399048 747.211731,488.729187 747.260620,495.058533 &#9;C747.280029,497.570801 745.970093,498.709106 743.658569,498.913544 &#9;C741.669312,499.089508 739.671875,499.196198 737.675659,499.265289 &#9;C718.772766,499.919250 710.608459,507.846405 709.300415,527.293335 z"/> <path fill="#2C9382" opacity="1.000000" stroke="none" d=" M316.859283,403.190643 &#9;C317.508698,396.431976 318.204773,390.178619 319.505188,383.968353 &#9;C322.941223,367.558655 333.434540,358.820831 349.353668,355.750092 &#9;C358.712433,353.944794 368.176208,353.588593 377.686523,353.694458 &#9;C380.889557,353.730103 382.213043,354.989716 382.178253,358.145111 &#9;C382.104706,364.808563 382.119568,371.473846 382.185028,378.137512 &#9;C382.214447,381.130524 380.794312,382.291779 377.903442,382.274994 &#9;C373.578278,382.249847 369.278748,382.412354 364.969849,383.138306 &#9;C354.816040,384.848938 350.754944,388.984009 350.348511,399.479767 &#9;C349.839447,412.626343 349.477661,425.787415 349.471466,438.942474 &#9;C349.463013,456.963165 346.642792,472.522980 331.463013,486.185394 &#9;C342.348785,494.713989 347.451141,506.477600 348.891571,519.745239 &#9;C349.877075,528.822266 349.716919,538.029480 349.941650,547.181641 &#9;C350.150208,555.675049 350.019653,564.179138 350.346191,572.666687 &#9;C350.772003,583.736023 355.578949,588.668091 366.512482,589.791748 &#9;C369.160980,590.063904 371.801331,590.510193 374.455658,590.613525 &#9;C381.891907,590.903259 381.928680,590.848694 382.029724,598.513977 &#9;C382.097809,603.677917 382.004730,608.843994 382.074005,614.007935 &#9;C382.111115,616.775391 381.297150,618.338257 378.117371,618.368958 &#9;C367.615601,618.470215 357.130524,618.408020 346.834564,616.023987 &#9;C330.631775,612.272278 321.497345,601.763123 318.630676,584.905457 &#9;C315.869537,568.668396 317.028595,552.350830 316.774536,536.060364 &#9;C316.686035,530.386353 316.570801,524.739441 315.358643,519.183533 &#9;C312.552551,506.322327 305.398376,500.586212 290.811462,499.401825 &#9;C278.667419,498.415802 278.667389,498.415741 278.661682,486.013580 &#9;C278.655853,473.301178 278.625458,472.787842 290.956726,472.056915 &#9;C311.505219,470.838959 315.739166,459.557831 316.544434,443.646637 &#9;C317.217438,430.349243 316.788696,416.996094 316.859283,403.190643 z"/> <path fill="#2C9382" opacity="1.000000" stroke="none" d=" M413.131531,266.758423 &#9;C404.118774,253.809692 408.761627,240.551514 411.296021,227.482971 &#9;C412.437988,221.594421 414.878723,216.053818 417.865845,210.817719 &#9;C418.831116,209.125717 419.551483,207.147079 422.915100,206.103027 &#9;C453.100037,292.136810 481.946625,378.648376 512.964722,464.531860 &#9;C508.893066,467.468170 507.612701,464.662933 506.311432,461.783569 &#9;C498.769867,445.095825 491.319397,428.365845 483.641083,411.741150 &#9;C461.156219,363.058014 437.405945,314.988037 413.131531,266.758423 z"/> </svg>